# xmcd
#
# Track frame offsets:
#	150
#	17012
#	36215
#	49277
#	63624
#	82489
#	95894
#	106639
#	119393
#	133849
#	154764
#	167666
#	185512
#
# Disc length: 2699 seconds
#
# Revision: 1
# Processed by: cddbd v1.5PL3 Copyright (c) Steve Scherf et al.
# Submitted via: audiograbber 1.82.02
#
DISCID=b80a890d
DTITLE=Gurbe Doustra - Duzze Stoarm
DYEAR=2003
DGENRE=Country
TTITLE0=Kertier oer fiven
TTITLE1=Tullamore Dew
TTITLE2=Ik wol hjir wei
TTITLE3=Bliksem Beitske
TTITLE4=Country-line
TTITLE5=35+
TTITLE6=Sjoukj is dea
TTITLE7=Kloaten foar it blok
TTITLE8=De Fuotte-Fetisjist
TTITLE9=Lit jim gean Friezen
TTITLE10=In stikje ut de film
TTITLE11=Dizze stoarm
TTITLE12=Foar Sybe
EXTD=
EXTT0=
EXTT1=
EXTT2=
EXTT3=
EXTT4=
EXTT5=
EXTT6=
EXTT7=
EXTT8=
EXTT9=
EXTT10=
EXTT11=
EXTT12=
PLAYORDER=
